<mxfile host="app.diagrams.net" modified="2022-11-01T19:27:56.368Z" agent="5.0 (X11)" etag="QPN1OjdJdsmU82LS_S5L" version="20.5.1" type="github">
  <diagram name="Page-1" id="c9db0220-8083-56f3-ca83-edcdcd058819">
    <mxGraphModel dx="1422" dy="2508.5" grid="1" gridSize="10" guides="1" tooltips="1" connect="1" arrows="1" fold="1" page="1" pageScale="1.5" pageWidth="826" pageHeight="1169" background="#114B5F" math="0" shadow="0">
      <root>
        <mxCell id="0" style=";html=1;" />
        <mxCell id="1" style=";html=1;" parent="0" />
        <mxCell id="K4D3wDkRRdALo6r_BqKB-13" value="ZAPATILLAS DEPORTIVAS-SITE" style="text;html=1;align=center;verticalAlign=middle;resizable=0;points=[];autosize=1;strokeColor=#028090;fillColor=#B266FF;fontColor=#E4FDE1;" vertex="1" parent="1">
          <mxGeometry x="510" y="-70" width="190" height="30" as="geometry" />
        </mxCell>
        <mxCell id="K4D3wDkRRdALo6r_BqKB-18" value="" style="html=1;shadow=0;dashed=0;shape=mxgraph.bootstrap.rrect;rSize=5;strokeColor=#DFDFDF;html=1;whiteSpace=wrap;fillColor=#66B2FF;fontColor=#E4FDE1;" vertex="1" parent="1">
          <mxGeometry x="210" y="120" width="780" height="360" as="geometry" />
        </mxCell>
        <mxCell id="K4D3wDkRRdALo6r_BqKB-19" value="&lt;b&gt;&lt;font style=&quot;font-size: 20px&quot;&gt;Card title&lt;/font&gt;&lt;/b&gt;&lt;br&gt;&lt;br&gt;This is a wider card with supporting text below as a natural lead-in to additional content. This content is a little bit longer.&lt;br&gt;&lt;br&gt;&lt;font color=&quot;#999999&quot; style=&quot;font-size: 12px&quot;&gt;Last udated 3 mind ago&lt;/font&gt;" style="html=1;shadow=0;dashed=0;shape=mxgraph.bootstrap.leftButton;rSize=5;strokeColor=#DFDFDF;html=1;whiteSpace=wrap;fillColor=#ffffff;fontColor=#000000;verticalAlign=top;align=left;spacing=20;spacingBottom=0;fontSize=14;spacingTop=160;" vertex="1" parent="K4D3wDkRRdALo6r_BqKB-18">
          <mxGeometry width="260" height="360" relative="1" as="geometry" />
        </mxCell>
        <mxCell id="K4D3wDkRRdALo6r_BqKB-20" value="Image cap" style="html=1;shadow=0;dashed=0;shape=mxgraph.basic.corner_round_rect;dx=2;perimeter=none;whiteSpace=wrap;fillColor=#868E96;strokeColor=#DFDFDF;fontColor=#DEE2E6;resizeWidth=1;fontSize=18;" vertex="1" parent="K4D3wDkRRdALo6r_BqKB-19">
          <mxGeometry width="260" height="160" relative="1" as="geometry" />
        </mxCell>
        <mxCell id="K4D3wDkRRdALo6r_BqKB-21" value="&lt;b&gt;&lt;font style=&quot;font-size: 20px&quot;&gt;Card title&lt;/font&gt;&lt;/b&gt;&lt;br&gt;&lt;br&gt;This card has supporting text below as a natural lead-in to additional content.&lt;br&gt;&lt;br&gt;&lt;font color=&quot;#999999&quot; style=&quot;font-size: 12px&quot;&gt;Last udated 3 mind ago&lt;/font&gt;" style="html=1;shadow=0;dashed=0;strokeColor=#DFDFDF;html=1;whiteSpace=wrap;fillColor=#ffffff;fontColor=#000000;verticalAlign=top;align=left;spacing=20;spacingBottom=0;fontSize=14;spacingTop=160;" vertex="1" parent="K4D3wDkRRdALo6r_BqKB-18">
          <mxGeometry width="260" height="360" relative="1" as="geometry">
            <mxPoint x="260" as="offset" />
          </mxGeometry>
        </mxCell>
        <mxCell id="K4D3wDkRRdALo6r_BqKB-22" value="Image cap" style="html=1;shadow=0;dashed=0;perimeter=none;whiteSpace=wrap;fillColor=#868E96;strokeColor=#DFDFDF;fontColor=#DEE2E6;resizeWidth=1;fontSize=18;" vertex="1" parent="K4D3wDkRRdALo6r_BqKB-21">
          <mxGeometry width="260" height="160" relative="1" as="geometry" />
        </mxCell>
        <mxCell id="K4D3wDkRRdALo6r_BqKB-23" value="&lt;b&gt;&lt;font style=&quot;font-size: 20px&quot;&gt;Card title&lt;/font&gt;&lt;/b&gt;&lt;br&gt;&lt;br&gt;This is a wider card with supporting text below as a natural lead-in to additional content. This card has even longer content than the first to show that equal height action.&lt;br&gt;&lt;br&gt;&lt;font color=&quot;#999999&quot; style=&quot;font-size: 12px&quot;&gt;Last udated 3 mind ago&lt;/font&gt;" style="html=1;shadow=0;dashed=0;shape=mxgraph.bootstrap.rightButton;rSize=5;strokeColor=#DFDFDF;html=1;whiteSpace=wrap;fillColor=#ffffff;fontColor=#000000;verticalAlign=top;align=left;spacing=20;spacingBottom=0;fontSize=14;spacingTop=160;" vertex="1" parent="K4D3wDkRRdALo6r_BqKB-18">
          <mxGeometry x="1" width="260" height="360" relative="1" as="geometry">
            <mxPoint x="-260" as="offset" />
          </mxGeometry>
        </mxCell>
        <mxCell id="K4D3wDkRRdALo6r_BqKB-24" value="Image cap" style="html=1;shadow=0;dashed=0;shape=mxgraph.basic.corner_round_rect;dx=2;flipH=1;perimeter=none;whiteSpace=wrap;fillColor=#868E96;strokeColor=#DFDFDF;fontColor=#DEE2E6;resizeWidth=1;fontSize=18;" vertex="1" parent="K4D3wDkRRdALo6r_BqKB-23">
          <mxGeometry width="260" height="160" relative="1" as="geometry" />
        </mxCell>
        <mxCell id="K4D3wDkRRdALo6r_BqKB-25" value="Navegador " style="html=1;shadow=0;dashed=0;fillColor=#CCCCFF;strokeColor=none;fontSize=16;fontColor=#ffffff;align=left;spacing=15;" vertex="1" parent="1">
          <mxGeometry x="170" y="10" width="800" height="60" as="geometry" />
        </mxCell>
        <mxCell id="K4D3wDkRRdALo6r_BqKB-26" value="inicio&#xa;" style="fillColor=none;strokeColor=none;fontSize=14;fontColor=#ffffff;align=center;" vertex="1" parent="K4D3wDkRRdALo6r_BqKB-25">
          <mxGeometry width="70" height="30" relative="1" as="geometry">
            <mxPoint x="110" y="20" as="offset" />
          </mxGeometry>
        </mxCell>
        <mxCell id="K4D3wDkRRdALo6r_BqKB-32" style="edgeStyle=orthogonalEdgeStyle;rounded=0;orthogonalLoop=1;jettySize=auto;html=1;exitX=0;exitY=0.75;exitDx=0;exitDy=0;strokeColor=#028090;fontColor=#E4FDE1;fillColor=#F45B69;" edge="1" parent="K4D3wDkRRdALo6r_BqKB-25" target="K4D3wDkRRdALo6r_BqKB-25">
          <mxGeometry relative="1" as="geometry">
            <mxPoint x="170" y="40" as="sourcePoint" />
          </mxGeometry>
        </mxCell>
      </root>
    </mxGraphModel>
  </diagram>
</mxfile>
